Coordinates
version=1
nRows=13
nColumns=40
inDegrees=yes

Units are S.I. units (second, meters, Newtons, ...)
If the header above contains a line with 'inDegrees', this indicates whether rotational values are in degrees (yes) or radians (no).

endheader
time	pelvis_tilt	pelvis_list	pelvis_rotation	pelvis_tx	pelvis_ty	pelvis_tz	hip_flexion_r	hip_adduction_r	hip_rotation_r	knee_angle_r	knee_angle_r_beta	ankle_angle_r	subtalar_angle_r	mtp_angle_r	hip_flexion_l	hip_adduction_l	hip_rotation_l	knee_angle_l	knee_angle_l_beta	ankle_angle_l	subtalar_angle_l	mtp_angle_l	lumbar_extension	lumbar_bending	lumbar_rotation	arm_flex_r	arm_add_r	arm_rot_r	elbow_flex_r	pro_sup_r	wrist_flex_r	wrist_dev_r	arm_flex_l	arm_add_l	arm_rot_l	elbow_flex_l	pro_sup_l	wrist_flex_l	wrist_dev_l
      0.00000000	      6.53750052	      6.57746512	      2.23802949	     -0.34788437	      1.06924405	      0.04582971	     26.27192601	    -12.98569430	     -7.76539365	     32.64395350	      0.56974447	    -18.27337195	    -11.18897114	      0.00000000	     68.87390638	     -4.64524619	      2.23304201	    113.43364995	      1.97979067	     -4.80486599	     -9.48729530	      0.00000000	    -73.39628387	     -3.61223924	     -4.12390338	     86.60006453	     -8.68754410	      1.80822181	     47.76224603	     88.70531530	      0.00000000	      0.00000000	     89.82806663	     -2.79848090	      7.77938061	     43.67985399	     84.45689971	      0.00000000	      0.00000000
      0.00833333	      6.47861002	      6.80215547	      2.15698589	     -0.34787084	      1.06940360	      0.04571952	     25.29318483	    -13.08397415	     -7.67751344	     31.90315314	      0.55681506	    -18.48905890	    -11.24804226	      0.00000000	     70.03346257	     -4.66035694	      1.93032729	    113.73939997	      1.98512702	     -4.47448726	     -9.63884014	      0.00000000	    -73.38317966	     -3.83889921	     -4.29678541	     86.53300780	     -8.78866713	      1.77490292	     47.86093697	     88.61251523	      0.00000000	      0.00000000	     89.83077244	     -2.70480762	      7.78726107	     43.67842519	     84.95009106	      0.00000000	      0.00000000
      0.01666667	      6.47544530	      6.99518055	      2.08350001	     -0.34792162	      1.06949733	      0.04549466	     24.45828446	    -13.22179253	     -7.66113651	     31.58260086	      0.55122037	    -18.55463944	    -11.29713193	      0.00000000	     71.12426587	     -4.82275801	      1.55870047	    114.07450834	      1.99097576	     -4.20100153	     -9.72438926	      0.00000000	    -73.41397268	     -4.01873200	     -4.46558981	     86.54383039	     -8.83893890	      1.73752690	     47.83753257	     88.62881142	      0.00000000	      0.00000000	     89.82856425	     -2.66200065	      7.74380576	     43.74148861	     85.08417563	      0.00000000	      0.00000000
      0.02500000	      6.25821746	      7.13023086	      1.98077423	     -0.34821212	      1.06978725	      0.04563865	     23.67106840	    -13.19240969	     -7.44336097	     30.84241802	      0.53830174	    -18.74950312	    -11.31164215	      0.00000000	     72.38628046	     -4.77025930	      1.36795440	    114.00868927	      1.98982700	     -3.94777823	     -9.95310735	      0.00000000	    -73.27987063	     -4.25476198	     -4.57480230	     86.55311809	     -8.83373455	      1.67333532	     47.82910751	     88.60923913	      0.00000000	      0.00000000	     89.83652022	     -2.61618638	      7.70092472	     43.76262365	     85.26500956	      0.00000000	      0.00000000
      0.03333333	      6.19983955	      7.19567916	      1.93488881	     -0.34840772	      1.07014105	      0.04551890	     22.96724284	    -13.18181136	     -7.33751769	     30.62020280	      0.53442336	    -18.95790412	    -11.38854974	      0.00000000	     73.41731301	     -4.90592827	      1.16320401	    113.84542959	      1.98697758	     -3.90670927	    -10.05705467	      0.00000000	    -73.28506535	     -4.35673194	     -4.64573118	     86.59520484	     -8.83687773	      1.61513340	     47.83636308	     88.60501902	      0.00000000	      0.00000000	     89.83822945	     -2.59097842	      7.63715080	     43.85519901	     85.41236095	      0.00000000	      0.00000000
      0.04166667	      6.09438035	      7.28088031	      1.92195457	     -0.34872829	      1.07053978	      0.04523141	     22.41094659	    -13.19518665	     -7.13887453	     30.50770664	      0.53245993	    -19.23112082	    -11.62996793	      0.00000000	     74.37165438	     -4.92782392	      0.95173632	    113.58046742	      1.98235312	     -3.79396700	    -10.25055858	      0.00000000	    -73.25638941	     -4.41965674	     -4.74314686	     86.64582888	     -8.82617395	      1.52374032	     47.80039457	     88.56689414	      0.00000000	      0.00000000	     89.84141620	     -2.54835296	      7.52200529	     43.93307396	     85.64728065	      0.00000000	      0.00000000
      0.05000000	      6.16183341	      7.28580986	      1.86537662	     -0.34897207	      1.07105763	      0.04500525	     21.80384592	    -13.19387506	     -7.08885614	     30.72302999	      0.53621803	    -19.24622074	    -11.64100340	      0.00000000	     75.11713286	     -4.99339487	      0.80779835	    113.34062233	      1.97816704	     -3.69238560	    -10.28106220	      0.00000000	    -73.38040041	     -4.47073212	     -4.75515162	     86.69337506	     -8.84149997	      1.51248471	     47.81476162	     88.62414326	      0.00000000	      0.00000000	     89.84278109	     -2.53914609	      7.48042755	     44.09443376	     85.65472931	      0.00000000	      0.00000000
      0.05833333	      5.86642608	      7.43368270	      2.10965777	     -0.34964621	      1.07114533	      0.04417382	     21.79766868	    -13.40479819	     -6.79069320	     31.35511048	      0.54724992	    -19.10417065	    -12.35050178	      0.00000000	     76.10041161	     -4.65874450	      0.46805598	    112.77120161	      1.96822877	     -3.15772946	    -10.65518812	      0.00000000	    -73.16910691	     -4.30200819	     -4.99479700	     86.79809865	     -8.77306784	      1.42961274	     47.72176317	     88.57089355	      0.00000000	      0.00000000	     89.84691340	     -2.51211196	      7.28056214	     44.10548402	     85.87137135	      0.00000000	      0.00000000
      0.06666667	      5.46486996	      7.61370186	      2.04639143	     -0.35039074	      1.07095261	      0.04388000	     22.16105853	    -13.54207163	     -6.15550487	     32.21384667	      0.56223769	    -19.05775792	    -13.06318340	      0.00000000	     77.07089642	     -4.68913068	      0.02040230	    112.11029158	      1.95669371	     -3.24930211	    -10.94802920	      0.00000000	    -72.84984933	     -4.46816161	     -5.15886200	     86.83507415	     -8.74773876	      1.32425396	     47.74790616	     88.58433996	      0.00000000	      0.00000000	     89.85039663	     -2.47049592	      7.15697776	     44.19262606	     86.08111230	      0.00000000	      0.00000000
      0.07500000	      5.49234761	      7.47907392	      2.07836920	     -0.35089794	      1.07166537	      0.04357458	     21.77898092	    -13.42618300	     -6.03463577	     32.73457603	      0.57132613	    -19.00609174	    -13.08631752	      0.00000000	     77.50949569	     -4.71105294	     -0.03569521	    111.34632894	      1.94336005	     -3.12155460	    -11.00164873	      0.00000000	    -72.94812912	     -4.34348289	     -5.04445975	     86.95078726	     -8.73667474	      1.31565587	     47.75049407	     88.62452392	      0.00000000	      0.00000000	     89.85628480	     -2.48122197	      7.11586379	     44.31243147	     86.09611103	      0.00000000	      0.00000000
      0.08333333	      5.05893467	      7.70820524	      2.35093215	     -0.35189872	      1.07139853	      0.04251252	     22.40594820	    -13.78810373	     -5.54193679	     34.16979718	      0.59637547	    -18.50913616	    -13.79659123	      0.00000000	     78.33770563	     -4.26346348	     -0.49315951	    110.45535406	      1.92780960	     -2.98852535	    -11.33874656	      0.00000000	    -72.60637840	     -4.17341277	     -5.36217219	     87.08238470	     -8.71485220	      1.33004513	     47.65380540	     88.59389364	      0.00000000	      0.00000000	     89.85849066	     -2.45139632	      6.94142791	     44.42578924	     86.12662746	      0.00000000	      0.00000000
      0.09166667	      5.08096156	      7.48704832	      2.39055044	     -0.35247817	      1.07223860	      0.04225485	     22.15359101	    -13.57980134	     -5.43293813	     34.87237411	      0.60863775	    -18.45812586	    -13.79182902	      0.00000000	     78.49379956	     -4.27978946	     -0.47332120	    109.44348342	      1.91014913	     -2.94478047	    -11.36310709	      0.00000000	    -72.70419874	     -3.99231973	     -5.18006889	     87.20493536	     -8.68203237	      1.32814421	     47.66095078	     88.64180451	      0.00000000	      0.00000000	     89.86534857	     -2.47472896	      6.90034067	     44.52648645	     86.14909967	      0.00000000	      0.00000000
      0.10000000	      4.48352502	      7.53471278	      2.55025294	     -0.35363896	      1.07109803	      0.04159899	     23.37317820	    -13.71124618	     -4.73537430	     36.94416135	      0.64479725	    -17.79821237	    -14.68571322	      0.00000000	     79.48854384	     -4.05533029	     -0.75324183	    108.38250204	      1.89163151	     -2.69160475	    -11.72623253	      0.00000000	    -72.12210628	     -3.89489494	     -5.26746643	     87.31146994	     -8.67160786	      1.33284563	     47.57072346	     88.60403712	      0.00000000	      0.00000000	     89.86482492	     -2.44933169	      6.76271437	     44.60327908	     86.18512610	      0.00000000	      0.00000000
